<svg xmlns="http://www.w3.org/2000/svg" width="179.08" height="34.87" viewBox="0 0 179.08 34.87" data-fc-idx="0">
            <g fill="#e70c2e" style="fill: rgb(231, 12, 46) !important;">
                <path d="M12.03 15.6a4.83 4.83 0 0 1 4.85 4.2h6.82c-1.05-6.22-5.58-9.7-11.62-9.7C4.85 10.11 0 15.05 0 22.46c0 7.46 4.85 12.4 12.03 12.4 6 0 10.53-3.66 11.67-9.84h-6.82c-.78 2.8-2.47 4.26-5.03 4.26-3.02 0-5.31-2.2-5.31-6.82 0-4.2 2.15-6.86 5.5-6.86M37.74 10.07c-7.28 0-12.45 5.03-12.45 12.4 0 7.41 5.17 12.36 12.45 12.36s12.44-4.95 12.44-12.36c0-7.36-5.17-12.4-12.44-12.4m0 19.3c-3.58 0-5.91-2.74-5.91-6.95 0-4.26 2.33-6.91 5.9-6.91s5.9 2.65 5.9 6.9c0 4.22-2.33 6.96-5.9 6.96M66.82 10.11c-3.57 0-5.95 1.33-7.19 3.3l-.36-2.84h-5.95v23.79h6.4V21.78c0-3.85 1.84-6.18 5.22-6.18 3.11 0 4.99 2.01 4.99 5.95v12.81h6.45V20.22c0-6.08-3.48-10.1-9.56-10.1M93.48 20.45l-4.49-.92c-2.33-.4-3.48-1-3.48-2.38 0-1.46 1.33-2.47 3.67-2.47 2.37 0 4.12 1.14 4.16 3.16h6.27c0-4.76-4.4-7.73-10.43-7.73-5.54 0-10.03 2.88-10.03 7.32 0 3.2 1.51 5.85 6.27 6.73l4.58.86c2.56.46 3.39 1.29 3.39 2.75 0 1.6-1.42 2.47-3.94 2.47-2.56 0-4.58-1.19-4.62-3.34h-6.27c.04 4.8 4.67 7.92 10.98 7.92 5.58 0 10.38-2.52 10.38-7.64 0-3.48-1.96-5.82-6.45-6.73M114.29 10.07c-7.28 0-12.45 5.03-12.45 12.4 0 7.41 5.17 12.36 12.45 12.36s12.44-4.95 12.44-12.36c0-7.36-5.17-12.4-12.44-12.4m0 19.3c-3.58 0-5.91-2.74-5.91-6.95 0-4.26 2.33-6.91 5.9-6.91s5.9 2.65 5.9 6.9c0 4.22-2.33 6.96-5.9 6.96M129.87 0h6.41v34.36h-6.4zM155.85 23.61c0 3.52-1.64 5.63-4.8 5.67-3.02.1-4.94-1.69-4.94-5.4v-13.3h-6.08V24.7c0 6.09 3.52 10.11 9.6 10.11a7.18 7.18 0 0 0 6.13-3.07l.32 2.61h5.86V10.57h-6.09ZM179.08 16.24v-5.67h-5.45V3.82h-6.4V7.3l3.26 3.27h-6.92v5.68h3.66v11.07c0 4.3 2.29 7.04 7 7.04h4.85v-5.63h-2.8c-2.1 0-2.65-.77-2.65-2.84v-9.65Z" style="fill: rgb(231, 12, 46) !important;"/>
            </g>
        </svg>